<?xml version="1.0" encoding="UTF-8" standalone="no"?>
<!-- Created with Inkscape (http://www.inkscape.org/) -->

<svg
   xmlns:dc="http://purl.org/dc/elements/1.1/"
   xmlns:cc="http://creativecommons.org/ns#"
   xmlns:rdf="http://www.w3.org/1999/02/22-rdf-syntax-ns#"
   xmlns:svg="http://www.w3.org/2000/svg"
   xmlns="http://www.w3.org/2000/svg"
   xmlns:xlink="http://www.w3.org/1999/xlink"
   xmlns:sodipodi="http://sodipodi.sourceforge.net/DTD/sodipodi-0.dtd"
   xmlns:inkscape="http://www.inkscape.org/namespaces/inkscape"
   sodipodi:docname="logo.svg"
   inkscape:version="0.48.2 r9819"
   version="1.1"
   id="svg2"
   height="155.25818"
   width="146.32878"
   inkscape:export-filename="/media/data/projects/sema/style/logo.png"
   inkscape:export-xdpi="90"
   inkscape:export-ydpi="90">
  <sodipodi:namedview
     id="base"
     pagecolor="#ffffff"
     bordercolor="#666666"
     borderopacity="1.0"
     inkscape:pageopacity="0.0"
     inkscape:pageshadow="2"
     inkscape:zoom="1"
     inkscape:cx="112.26671"
     inkscape:cy="104.87684"
     inkscape:document-units="px"
     inkscape:current-layer="layer1"
     showgrid="false"
     inkscape:window-width="1366"
     inkscape:window-height="744"
     inkscape:window-x="0"
     inkscape:window-y="24"
     inkscape:window-maximized="1"
     fit-margin-top="0"
     fit-margin-left="0"
     fit-margin-right="0"
     fit-margin-bottom="0" />
  <defs
     id="defs4">
    <linearGradient
       inkscape:collect="always"
       id="linearGradient4447">
      <stop
         style="stop-color:#666666;stop-opacity:1;"
         offset="0"
         id="stop4449" />
      <stop
         style="stop-color:#8c8c8c;stop-opacity:1"
         offset="1"
         id="stop4451" />
    </linearGradient>
    <linearGradient
       inkscape:collect="always"
       id="linearGradient4138">
      <stop
         style="stop-color:#ffffff;stop-opacity:1;"
         offset="0"
         id="stop4140" />
      <stop
         style="stop-color:#ffffff;stop-opacity:0;"
         offset="1"
         id="stop4142" />
    </linearGradient>
    <linearGradient
       inkscape:collect="always"
       id="linearGradient4128">
      <stop
         style="stop-color:#ff9900;stop-opacity:1;"
         offset="0"
         id="stop4130" />
      <stop
         style="stop-color:#ff9900;stop-opacity:0;"
         offset="1"
         id="stop4132" />
    </linearGradient>
    <linearGradient
       inkscape:collect="always"
       id="linearGradient4118">
      <stop
         style="stop-color:#0084c8;stop-opacity:1;"
         offset="0"
         id="stop4120" />
      <stop
         style="stop-color:#0084c8;stop-opacity:0;"
         offset="1"
         id="stop4122" />
    </linearGradient>
    <linearGradient
       inkscape:collect="always"
       id="linearGradient4108">
      <stop
         style="stop-color:#009100;stop-opacity:1;"
         offset="0"
         id="stop4110" />
      <stop
         style="stop-color:#009100;stop-opacity:0;"
         offset="1"
         id="stop4112" />
    </linearGradient>
    <linearGradient
       inkscape:collect="always"
       id="linearGradient4098">
      <stop
         style="stop-color:#ba00ff;stop-opacity:1;"
         offset="0"
         id="stop4100" />
      <stop
         style="stop-color:#ba00ff;stop-opacity:0;"
         offset="1"
         id="stop4102" />
    </linearGradient>
    <linearGradient
       inkscape:collect="always"
       id="linearGradient4088">
      <stop
         style="stop-color:#dc0000;stop-opacity:1;"
         offset="0"
         id="stop4090" />
      <stop
         style="stop-color:#dc0000;stop-opacity:0;"
         offset="1"
         id="stop4092" />
    </linearGradient>
    <linearGradient
       inkscape:collect="always"
       id="linearGradient4078">
      <stop
         style="stop-color:#9eabb0;stop-opacity:1;"
         offset="0"
         id="stop4080" />
      <stop
         style="stop-color:#9eabb0;stop-opacity:0;"
         offset="1"
         id="stop4082" />
    </linearGradient>
    <linearGradient
       inkscape:collect="always"
       xlink:href="#linearGradient4078"
       id="linearGradient4084"
       x1="454.40088"
       y1="132.13217"
       x2="489.75623"
       y2="237.49109"
       gradientUnits="userSpaceOnUse"
       gradientTransform="translate(-10,-180)" />
    <linearGradient
       inkscape:collect="always"
       xlink:href="#linearGradient4088"
       id="linearGradient4094"
       x1="412.68158"
       y1="113.7474"
       x2="440.25873"
       y2="241.02661"
       gradientUnits="userSpaceOnUse"
       gradientTransform="translate(-8,-180)" />
    <linearGradient
       inkscape:collect="always"
       xlink:href="#linearGradient4098"
       id="linearGradient4104"
       x1="375.20493"
       y1="117.28293"
       x2="399.24655"
       y2="245.97636"
       gradientUnits="userSpaceOnUse"
       gradientTransform="translate(-6,-180)" />
    <linearGradient
       inkscape:collect="always"
       xlink:href="#linearGradient4108"
       id="linearGradient4114"
       x1="334.19272"
       y1="119.40425"
       x2="360.35568"
       y2="257.99719"
       gradientUnits="userSpaceOnUse"
       gradientTransform="translate(-4,-180)" />
    <linearGradient
       inkscape:collect="always"
       xlink:href="#linearGradient4118"
       id="linearGradient4124"
       x1="295.30185"
       y1="129.30374"
       x2="320.75769"
       y2="250.92612"
       gradientUnits="userSpaceOnUse"
       gradientTransform="translate(-2,-180)" />
    <linearGradient
       inkscape:collect="always"
       xlink:href="#linearGradient4128"
       id="linearGradient4134"
       x1="254.99675"
       y1="123.64689"
       x2="278.3313"
       y2="250.21901"
       gradientUnits="userSpaceOnUse"
       gradientTransform="translate(0,-180)" />
    <linearGradient
       inkscape:collect="always"
       xlink:href="#linearGradient4138"
       id="linearGradient4144"
       x1="288.9379"
       y1="109.15119"
       x2="296.71606"
       y2="-37.927013"
       gradientUnits="userSpaceOnUse" />
    <linearGradient
       inkscape:collect="always"
       xlink:href="#linearGradient4138"
       id="linearGradient4148"
       gradientUnits="userSpaceOnUse"
       x1="288.9379"
       y1="109.15119"
       x2="296.71606"
       y2="-37.927013"
       gradientTransform="translate(38,0)" />
    <linearGradient
       inkscape:collect="always"
       xlink:href="#linearGradient4138"
       id="linearGradient4152"
       gradientUnits="userSpaceOnUse"
       gradientTransform="translate(76,0)"
       x1="288.9379"
       y1="109.15119"
       x2="296.71606"
       y2="-37.927013" />
    <linearGradient
       inkscape:collect="always"
       xlink:href="#linearGradient4138"
       id="linearGradient4156"
       gradientUnits="userSpaceOnUse"
       gradientTransform="translate(114,0)"
       x1="288.9379"
       y1="109.15119"
       x2="296.71606"
       y2="-37.927013" />
    <linearGradient
       inkscape:collect="always"
       xlink:href="#linearGradient4138"
       id="linearGradient4160"
       gradientUnits="userSpaceOnUse"
       gradientTransform="translate(152,0)"
       x1="288.9379"
       y1="109.15119"
       x2="296.71606"
       y2="-37.927013" />
    <linearGradient
       inkscape:collect="always"
       xlink:href="#linearGradient4078"
       id="linearGradient4232"
       gradientUnits="userSpaceOnUse"
       gradientTransform="translate(-10,-180)"
       x1="454.40088"
       y1="132.13217"
       x2="489.75623"
       y2="237.49109" />
    <linearGradient
       inkscape:collect="always"
       xlink:href="#linearGradient4088"
       id="linearGradient4234"
       gradientUnits="userSpaceOnUse"
       gradientTransform="translate(-8,-180)"
       x1="412.68158"
       y1="113.7474"
       x2="440.25873"
       y2="241.02661" />
    <linearGradient
       inkscape:collect="always"
       xlink:href="#linearGradient4098"
       id="linearGradient4236"
       gradientUnits="userSpaceOnUse"
       gradientTransform="translate(-6,-180)"
       x1="375.20493"
       y1="117.28293"
       x2="399.24655"
       y2="245.97636" />
    <linearGradient
       inkscape:collect="always"
       xlink:href="#linearGradient4108"
       id="linearGradient4238"
       gradientUnits="userSpaceOnUse"
       gradientTransform="translate(-4,-180)"
       x1="334.19272"
       y1="119.40425"
       x2="360.35568"
       y2="257.99719" />
    <linearGradient
       inkscape:collect="always"
       xlink:href="#linearGradient4118"
       id="linearGradient4240"
       gradientUnits="userSpaceOnUse"
       gradientTransform="translate(-2,-180)"
       x1="295.30185"
       y1="129.30374"
       x2="320.75769"
       y2="250.92612" />
    <linearGradient
       inkscape:collect="always"
       xlink:href="#linearGradient4128"
       id="linearGradient4242"
       gradientUnits="userSpaceOnUse"
       gradientTransform="translate(0,-180)"
       x1="254.99675"
       y1="123.64689"
       x2="278.3313"
       y2="250.21901" />
    <linearGradient
       inkscape:collect="always"
       xlink:href="#linearGradient4138"
       id="linearGradient4244"
       gradientUnits="userSpaceOnUse"
       x1="288.9379"
       y1="109.15119"
       x2="296.71606"
       y2="-37.927013" />
    <linearGradient
       inkscape:collect="always"
       xlink:href="#linearGradient4138"
       id="linearGradient4246"
       gradientUnits="userSpaceOnUse"
       gradientTransform="translate(38,0)"
       x1="288.9379"
       y1="109.15119"
       x2="296.71606"
       y2="-37.927013" />
    <linearGradient
       inkscape:collect="always"
       xlink:href="#linearGradient4138"
       id="linearGradient4248"
       gradientUnits="userSpaceOnUse"
       gradientTransform="translate(76,0)"
       x1="288.9379"
       y1="109.15119"
       x2="296.71606"
       y2="-37.927013" />
    <linearGradient
       inkscape:collect="always"
       xlink:href="#linearGradient4138"
       id="linearGradient4250"
       gradientUnits="userSpaceOnUse"
       gradientTransform="translate(114,0)"
       x1="288.9379"
       y1="109.15119"
       x2="296.71606"
       y2="-37.927013" />
    <linearGradient
       inkscape:collect="always"
       xlink:href="#linearGradient4138"
       id="linearGradient4252"
       gradientUnits="userSpaceOnUse"
       gradientTransform="translate(152,0)"
       x1="288.9379"
       y1="109.15119"
       x2="296.71606"
       y2="-37.927013" />
    <clipPath
       clipPathUnits="userSpaceOnUse"
       id="clipPath4443">
      <rect
         rx="8.8388348"
         ry="8.8388348"
         y="-47.097229"
         x="255.04041"
         height="144"
         width="229.00002"
         id="rect4445"
         style="fill:#82bf70;fill-opacity:1;fill-rule:evenodd;stroke:#000000;stroke-width:1;stroke-opacity:1" />
    </clipPath>
    <linearGradient
       inkscape:collect="always"
       xlink:href="#linearGradient4447"
       id="linearGradient4453"
       x1="316.86859"
       y1="270.60059"
       x2="316.86859"
       y2="288.9184"
       gradientUnits="userSpaceOnUse"
       gradientTransform="translate(0,2)" />
  </defs>
  <metadata
     id="metadata7">
    <rdf:RDF>
      <cc:Work
         rdf:about="">
        <dc:format>image/svg+xml</dc:format>
        <dc:type
           rdf:resource="http://purl.org/dc/dcmitype/StillImage" />
        <dc:title></dc:title>
      </cc:Work>
    </rdf:RDF>
  </metadata>
  <g
     inkscape:label="Layer 1"
     inkscape:groupmode="layer"
     id="layer1"
     transform="translate(-252.48372,-130.9375)">
    <rect
       style="fill:url(#linearGradient4453);fill-opacity:1;stroke:none"
       id="rect4440"
       width="146.2981"
       height="144"
       x="252.48372"
       y="142.19568"
       ry="8.8388348"
       rx="8.8388348" />
    <g
       id="g4162"
       transform="matrix(0.62882092,0,0,1,93.19996,179.5)"
       clip-path="url(#clipPath4443)">
      <rect
         y="-47.097229"
         x="255.1328"
         height="144"
         width="39"
         id="rect4064"
         style="fill:#ffff3e;fill-opacity:1;fill-rule:evenodd;stroke:none" />
      <rect
         style="fill:#19aeff;fill-opacity:1;fill-rule:evenodd;stroke:none"
         id="rect4066"
         width="39"
         height="144"
         x="293.13281"
         y="-47.097229" />
      <rect
         y="-47.097229"
         x="331.13281"
         height="144"
         width="39"
         id="rect4068"
         style="fill:#9ade00;fill-opacity:1;fill-rule:evenodd;stroke:none" />
      <rect
         style="fill:#d76cff;fill-opacity:1;fill-rule:evenodd;stroke:none"
         id="rect4070"
         width="39"
         height="144"
         x="369.13281"
         y="-47.097229" />
      <rect
         y="-47.097229"
         x="407.13281"
         height="144"
         width="39"
         id="rect4072"
         style="fill:#ff4141;fill-opacity:1;fill-rule:evenodd;stroke:none" />
      <rect
         style="fill:#bdcdd4;fill-opacity:1;fill-rule:evenodd;stroke:none"
         id="rect4074"
         width="39"
         height="144"
         x="445.13281"
         y="-47.097229" />
      <rect
         y="-47.097229"
         x="445.13281"
         height="144"
         width="20"
         id="rect4076"
         style="fill:url(#linearGradient4084);fill-opacity:1;fill-rule:evenodd;stroke:none" />
      <rect
         style="fill:url(#linearGradient4094);fill-opacity:1;fill-rule:evenodd;stroke:none"
         id="rect4086"
         width="20"
         height="144"
         x="407.13281"
         y="-47.097229" />
      <rect
         y="-47.097229"
         x="369.13281"
         height="144"
         width="20"
         id="rect4096"
         style="fill:url(#linearGradient4104);fill-opacity:1;fill-rule:evenodd;stroke:none" />
      <rect
         style="fill:url(#linearGradient4114);fill-opacity:1;fill-rule:evenodd;stroke:none"
         id="rect4106"
         width="20"
         height="144"
         x="331.13281"
         y="-47.097229" />
      <rect
         y="-47.097229"
         x="293.13281"
         height="144"
         width="20"
         id="rect4116"
         style="fill:url(#linearGradient4124);fill-opacity:1;fill-rule:evenodd;stroke:none" />
      <rect
         style="fill:url(#linearGradient4134);fill-opacity:1;fill-rule:evenodd;stroke:none"
         id="rect4126"
         width="20"
         height="144"
         x="255.1328"
         y="-47.097229" />
      <rect
         y="-47.097229"
         x="293.13281"
         height="144"
         width="3"
         id="rect4136"
         style="fill:url(#linearGradient4144);fill-opacity:1;fill-rule:evenodd;stroke:none" />
      <rect
         style="fill:url(#linearGradient4148);fill-opacity:1;fill-rule:evenodd;stroke:none"
         id="rect4146"
         width="3"
         height="144"
         x="331.13281"
         y="-47.097229" />
      <rect
         y="-47.097229"
         x="369.13281"
         height="144"
         width="3"
         id="rect4150"
         style="fill:url(#linearGradient4152);fill-opacity:1;fill-rule:evenodd;stroke:none" />
      <rect
         style="fill:url(#linearGradient4156);fill-opacity:1;fill-rule:evenodd;stroke:none"
         id="rect4154"
         width="3"
         height="144"
         x="407.13281"
         y="-47.097229" />
      <rect
         y="-47.097229"
         x="445.13281"
         height="144"
         width="3"
         id="rect4158"
         style="fill:url(#linearGradient4160);fill-opacity:1;fill-rule:evenodd;stroke:none" />
    </g>
    <g
       id="g4436"
       transform="matrix(1.1447554,0,0,1.1447554,-47.365562,-30.255544)">
      <path
         style="font-size:123.44515228px;font-style:normal;font-variant:normal;font-weight:normal;font-stretch:normal;text-align:center;line-height:125%;letter-spacing:0px;word-spacing:0px;writing-mode:lr-tb;text-anchor:middle;fill:#fffafa;fill-opacity:1;stroke:none;font-family:Farsi Simple Bold;-inkscape-font-specification:'Farsi Simple Bold,'"
         d="m 381.23865,174.40207 c -0.20305,6e-5 -1.22507,1.38279 -3.05183,4.15681 -1.82692,2.77414 -3.62671,4.18317 -5.41964,4.18312 -1.45476,5e-5 -2.98027,-1.00318 -4.60406,-2.99922 -3.18011,4.2965 -4.83712,6.4758 -4.97238,6.57723 -2.13138,2.30051 -4.49853,3.47282 -7.10341,3.47277 -0.94729,5e-5 -2.29997,-0.34939 -4.02526,-1.02604 -1.72539,-0.71039 -2.83383,-1.0523 -3.34123,-1.05236 -3.24775,6e-5 -7.64016,3.18257 -13.15446,9.57644 -1.96219,2.30051 -5.51293,6.97847 -10.65511,14.04896 -1.28557,3e-5 -4.18253,1.98769 -8.68194,5.94582 -4.46561,3.92433 -8.17792,5.89321 -11.15498,5.89319 l -1.81531,0 -1.78901,0 c -0.03,0 -0.0736,0.002 -0.10524,0 -1.1855,-0.0557 -3.58419,-1.17316 -7.20864,-3.31492 -6.3601,2e-5 -12.43958,6.14338 -18.25838,18.38993 -0.81193,1.72535 -1.28536,3.25085 -1.42068,4.60406 -0.0338,0.50745 0.18409,0.76295 0.65772,0.76296 0.64277,-1e-5 1.2402,-0.5298 1.81531,-1.57853 l 1.34176,-2.52566 c 3.31536,-5.24369 6.46031,-7.86636 9.47121,-7.86637 1.79298,1e-5 3.43121,0.32315 4.91976,0.99974 1.82682,0.77811 3.04797,1.24028 3.65694,1.34176 1.28553,0.20298 2.94254,0.2894 4.97239,0.2894 l 0.0526,0 1.89425,0 1.4996,0 c 1.5562,0 3.94215,-1.49545 7.15603,-4.47252 3.21386,-2.97706 5.81775,-4.44619 7.81375,-4.44621 4.19492,1.86069 6.76875,2.78876 7.6822,2.78875 4.26258,1e-5 8.10641,-1.63822 11.5233,-4.91977 2.87554,-2.77406 4.31462,-5.21637 4.31466,-7.31388 -4e-5,-1.86063 -1.64578,-3.63038 -4.89345,-5.28809 -3.85669,-1.99596 -5.96835,-3.22838 -6.34045,-3.73586 -4e-5,-1.25169 2.09284,-3.60006 6.28783,-7.05079 4.22875,-3.48448 7.05807,-5.23542 8.44516,-5.23547 0.57507,5e-5 1.88264,0.41712 3.94634,1.26282 2.06359,0.8458 3.77697,1.26287 5.13023,1.26283 2.13126,4e-5 5.62564,-2.87813 10.49726,-8.62932 1.04868,1.11645 2.90483,1.68382 5.57749,1.68377 3.38296,5e-5 6.46027,-3.45677 9.23443,-10.39202 0.87951,-2.19891 1.34167,-3.45764 1.34175,-3.76218 -8e-5,-1.0825 -0.42467,-1.63109 -1.23652,-1.63115 z m -86.2143,25.44072 c -0.60896,4e-5 -1.99169,1.28882 -4.15681,3.89372 -2.13133,2.57113 -3.39006,3.86744 -3.76218,3.86741 -0.50747,3e-5 -1.70983,-0.56734 -3.60432,-1.68377 -1.86067,-1.15019 -2.91274,-1.73636 -3.18338,-1.73639 -0.60895,3e-5 -3.39319,3.17129 -8.36623,9.49752 0,0.6428 1.14601,1.51451 3.44647,2.63089 2.19896,1.0826 3.70567,1.63118 4.55144,1.63115 1.11639,3e-5 2.49912,-1.08963 4.15681,-3.28861 1.69151,-2.19895 2.75109,-3.3149 3.15707,-3.31493 2.09746,0.87962 3.93483,1.80769 5.52487,2.78875 1.28553,2e-5 3.03648,-1.28876 5.23547,-3.89372 2.23277,-2.63873 3.34121,-4.6264 3.34123,-5.94581 -2e-5,-0.98105 -2.11168,-2.45019 -6.34044,-4.44621 z"
         id="path3234"
         inkscape:connector-curvature="0" />
      <path
         inkscape:connector-curvature="0"
         id="path4191"
         d="m 381.22655,174.40512 c -0.20305,6e-5 -1.20449,1.38223 -3.03125,4.15625 -1.82692,2.77414 -3.64457,4.18755 -5.4375,4.1875 -1.45476,5e-5 -2.96996,-1.00396 -4.59375,-3 -3.18011,4.2965 -4.83349,6.46107 -4.96875,6.5625 -2.13138,2.30051 -4.48887,3.4688 -7.09375,3.46875 -0.94729,5e-5 -2.30596,-0.32335 -4.03125,-1 -1.72539,-0.71039 -2.83635,-1.06244 -3.34375,-1.0625 -3.24775,6e-5 -7.64195,3.16863 -13.15625,9.5625 -1.96219,2.30051 -5.51407,6.99201 -10.65625,14.0625 -1.28557,3e-5 -4.18809,1.97937 -8.6875,5.9375 -4.46561,3.92433 -8.17919,5.90627 -11.15625,5.90625 l -1.8125,0 -1.78125,0 c -0.03,0 -0.0934,0.002 -0.125,0 -1.1855,-0.0557 -3.56305,-1.17074 -7.1875,-3.3125 -6.3601,2e-5 -12.46245,6.12845 -18.28125,18.375 -0.81193,1.72535 -1.27093,3.24054 -1.40625,4.59375 -0.0216,0.32399 0.0653,0.53859 0.25,0.65625 0.23917,-0.99727 0.60401,-2.07649 1.15625,-3.25 5.8188,-12.24655 11.92115,-18.37498 18.28125,-18.375 3.62445,2.14176 6.002,3.2568 7.1875,3.3125 0.0316,0.002 0.095,0 0.125,0 l 1.78125,0 1.8125,0 c 2.97706,2e-5 6.69064,-1.98192 11.15625,-5.90625 4.49941,-3.95813 7.40193,-5.93747 8.6875,-5.9375 5.14218,-7.07049 8.69406,-11.76199 10.65625,-14.0625 5.5143,-6.39387 9.9085,-9.56244 13.15625,-9.5625 0.5074,6e-5 1.61836,0.35211 3.34375,1.0625 1.72529,0.67665 3.08396,1.00005 4.03125,1 2.60488,5e-5 4.96237,-1.16824 7.09375,-3.46875 0.13526,-0.10143 1.78864,-2.266 4.96875,-6.5625 1.62379,1.99604 3.13899,3.00005 4.59375,3 1.79293,5e-5 3.61058,-1.41336 5.4375,-4.1875 1.82676,-2.77402 2.8282,-4.15619 3.03125,-4.15625 0.46213,3e-5 0.7957,0.17844 1,0.53125 0.15205,-0.44405 0.24997,-0.78149 0.25,-0.90625 -8e-5,-1.0825 -0.43815,-1.62494 -1.25,-1.625 z m -86.1875,25.4375 c -0.60896,4e-5 -1.99113,1.30135 -4.15625,3.90625 -2.13133,2.57113 -3.40913,3.84378 -3.78125,3.84375 -0.50747,3e-5 -1.69926,-0.57107 -3.59375,-1.6875 -1.86067,-1.15019 -2.91686,-1.71872 -3.1875,-1.71875 -0.60895,3e-5 -3.40196,3.17377 -8.375,9.5 0,0.29967 0.28227,0.63049 0.78125,1.03125 4.4407,-5.60809 7.02045,-8.53122 7.59375,-8.53125 0.27064,3e-5 1.32683,0.56856 3.1875,1.71875 1.89449,1.11643 3.08628,1.68753 3.59375,1.6875 0.37212,3e-5 1.64992,-1.27262 3.78125,-3.84375 2.16512,-2.6049 3.54729,-3.90621 4.15625,-3.90625 3.35667,1.58439 5.33971,2.84141 6.03125,3.78125 0.18899,-0.4981 0.28124,-0.95892 0.28125,-1.34375 -2e-5,-0.98105 -2.08374,-2.44148 -6.3125,-4.4375 z m 37.59375,7.5625 c -0.40083,0.59728 -0.62501,1.11279 -0.625,1.5 0.3721,0.50748 2.48706,1.72279 6.34375,3.71875 2.74727,1.40229 4.32184,2.88767 4.75,4.4375 0.0892,-0.39067 0.15624,-0.78689 0.15625,-1.15625 -4e-5,-1.86063 -1.65858,-3.62354 -4.90625,-5.28125 -2.89252,-1.49697 -4.78708,-2.56448 -5.71875,-3.21875 z"
         style="font-size:123.44515228px;font-style:normal;font-variant:normal;font-weight:normal;font-stretch:normal;text-align:center;line-height:125%;letter-spacing:0px;word-spacing:0px;writing-mode:lr-tb;text-anchor:middle;fill:#cccccc;fill-opacity:1;stroke:none;font-family:Farsi Simple Bold;-inkscape-font-specification:'Farsi Simple Bold,'" />
    </g>
    <path
       style="opacity:0.39252337;fill:#ffffff;fill-opacity:1;stroke:none"
       d="m 253.6328,265.65512 0,2.5 c 0,4.89671 3.94704,8.84375 8.84375,8.84375 l 126.75,0 c 4.89671,0 8.84375,-3.94704 8.84375,-8.84375 l 0,-2.5 c 0,4.89671 -3.94704,8.84375 -8.84375,8.84375 l -126.75,0 c -4.89671,0 -8.84375,-3.94704 -8.84375,-8.84375 z"
       id="rect4455"
       inkscape:connector-curvature="0" />
    <rect
       rx="8.8388348"
       ry="8.8388348"
       y="131.69568"
       x="253.63721"
       height="145.3125"
       width="144.4375"
       id="rect4254"
       style="fill:none;stroke:#666666;stroke-width:1.5;stroke-linejoin:round;stroke-miterlimit:4;stroke-opacity:1;stroke-dasharray:none" />
  </g>
</svg>
